<svg aria-hidden="true" style="position: absolute; width: 0; height: 0; overflow: hidden;" version="1.1" xmlns="http://www.w3.org/2000/svg" xmlns:xlink="http://www.w3.org/1999/xlink">
    <defs>

    <symbol id="icon-phone" viewBox="0 0 24 24">
        <path d="M23 16.92c0.016-0.714-0.236-1.404-0.673-1.943-0.46-0.566-1.129-0.967-1.925-1.080-0.8-0.098-1.695-0.314-2.586-0.646-0.433-0.159-0.893-0.218-1.344-0.174-0.663 0.064-1.307 0.349-1.819 0.855l-0.72 0.72c-1.77-1.117-3.36-2.667-4.583-4.589l0.726-0.726c0.322-0.33 0.563-0.726 0.707-1.156 0.212-0.632 0.214-1.336-0.039-2.011-0.289-0.753-0.518-1.644-0.644-2.595-0.104-0.714-0.456-1.345-0.963-1.804-0.539-0.486-1.256-0.779-2.027-0.771h-2.996c-0.088 0-0.182 0.004-0.273 0.012-0.824 0.075-1.542 0.478-2.033 1.066s-0.758 1.367-0.683 2.199c0.3 3.076 1.365 6.243 3.216 9.102 1.502 2.413 3.648 4.623 6.298 6.306 2.568 1.697 5.684 2.862 9.086 3.231 0.092 0.009 0.191 0.013 0.288 0.013 0.828-0.003 1.578-0.343 2.118-0.887s0.873-1.297 0.87-2.121zM21 16.92v3c0.001 0.28-0.109 0.53-0.29 0.712s-0.429 0.295-0.706 0.296c-3.149-0.336-5.961-1.391-8.263-2.912-2.428-1.543-4.359-3.537-5.702-5.694-1.697-2.62-2.655-5.481-2.924-8.238-0.024-0.268 0.064-0.526 0.229-0.724s0.403-0.33 0.678-0.355l3.088-0.005c0.271-0.003 0.507 0.094 0.687 0.256 0.17 0.154 0.288 0.366 0.323 0.608 0.142 1.072 0.408 2.117 0.757 3.025 0.081 0.216 0.080 0.447 0.010 0.658-0.049 0.145-0.131 0.281-0.242 0.395l-1.262 1.261c-0.324 0.324-0.379 0.814-0.162 1.201 1.584 2.785 3.839 4.957 6.381 6.378 0.397 0.222 0.882 0.144 1.195-0.166l1.27-1.27c0.166-0.164 0.377-0.257 0.598-0.279 0.152-0.015 0.31 0.005 0.459 0.060 1.022 0.381 2.070 0.636 3.034 0.754 0.241 0.034 0.462 0.166 0.615 0.355 0.147 0.181 0.231 0.412 0.226 0.682z"></path>
    </symbol>

    <symbol id="icon-mail-envelope-closed" viewBox="0 0 32 32">
        <path d="M5.315 9.274l7.735 6.726-7.737 6.728c-0.194-0.184-0.313-0.445-0.313-0.735v-11.986c0-0.289 0.121-0.549 0.315-0.733zM27.687 9.272c0.194 0.184 0.313 0.445 0.313 0.735v11.986c0 0.289-0.121 0.549-0.315 0.733l-7.735-6.726 7.737-6.728zM19.202 16.651l7.298 6.349h-20l7.298-6.349 2.702 2.349 2.702-2.349zM6.004 8c-1.107 0-2.004 0.895-2.004 1.994v12.012c0 1.101 0.89 1.994 2.004 1.994h20.993c1.107 0 2.004-0.895 2.004-1.994v-12.012c0-1.101-0.89-1.994-2.004-1.994h-20.993zM16.5 17.7l-10-8.7h20l-10 8.7z"></path>
    </symbol>

    <symbol id="icon-map2" viewBox="0 0 32 32">
        <path d="M21 6l-10-4-11 4v24l11-4 10 4 11-4v-24l-11 4zM12 4.554l8 3.2v19.692l-8-3.2v-19.692zM2 7.401l8-2.909v19.744l-8 2.909v-19.744zM30 24.599l-8 2.909v-19.744l8-2.909v19.744z"></path>
    </symbol>

    <symbol id="icon-embed2" viewBox="0 0 40 32">
        <path d="M26 23l3 3 10-10-10-10-3 3 7 7z"></path>
        <path d="M14 9l-3-3-10 10 10 10 3-3-7-7z"></path>
        <path d="M21.916 4.704l2.171 0.592-6 22.001-2.171-0.592 6-22.001z"></path>
    </symbol>

    <symbol id="icon-facebook" viewBox="0 0 32 32">
        <path d="M19 6h5v-6h-5c-3.86 0-7 3.14-7 7v3h-4v6h4v16h6v-16h5l1-6h-6v-3c0-0.542 0.458-1 1-1z"></path>
    </symbol>

    <symbol id="icon-whatsapp" viewBox="0 0 32 32">
        <path d="M27.281 4.65c-2.994-3-6.975-4.65-11.219-4.65-8.738 0-15.85 7.112-15.85 15.856 0 2.794 0.731 5.525 2.119 7.925l-2.25 8.219 8.406-2.206c2.319 1.262 4.925 1.931 7.575 1.931h0.006c0 0 0 0 0 0 8.738 0 15.856-7.113 15.856-15.856 0-4.238-1.65-8.219-4.644-11.219zM16.069 29.050v0c-2.369 0-4.688-0.637-6.713-1.837l-0.481-0.288-4.987 1.306 1.331-4.863-0.313-0.5c-1.325-2.094-2.019-4.519-2.019-7.012 0-7.269 5.912-13.181 13.188-13.181 3.519 0 6.831 1.375 9.319 3.862 2.488 2.494 3.856 5.8 3.856 9.325-0.006 7.275-5.919 13.188-13.181 13.188zM23.294 19.175c-0.394-0.2-2.344-1.156-2.706-1.288s-0.625-0.2-0.894 0.2c-0.262 0.394-1.025 1.288-1.256 1.556-0.231 0.262-0.462 0.3-0.856 0.1s-1.675-0.619-3.188-1.969c-1.175-1.050-1.975-2.35-2.206-2.744s-0.025-0.613 0.175-0.806c0.181-0.175 0.394-0.463 0.594-0.694s0.262-0.394 0.394-0.662c0.131-0.262 0.069-0.494-0.031-0.694s-0.894-2.15-1.219-2.944c-0.319-0.775-0.65-0.669-0.894-0.681-0.231-0.012-0.494-0.012-0.756-0.012s-0.694 0.1-1.056 0.494c-0.363 0.394-1.387 1.356-1.387 3.306s1.419 3.831 1.619 4.1c0.2 0.262 2.794 4.269 6.769 5.981 0.944 0.406 1.681 0.65 2.256 0.837 0.95 0.3 1.813 0.256 2.494 0.156 0.762-0.113 2.344-0.956 2.675-1.881s0.331-1.719 0.231-1.881c-0.094-0.175-0.356-0.275-0.756-0.475z"></path>
    </symbol>

    <symbol id="icon-twitter" viewBox="0 0 32 32">
        <path d="M32 7.075c-1.175 0.525-2.444 0.875-3.769 1.031 1.356-0.813 2.394-2.1 2.887-3.631-1.269 0.75-2.675 1.3-4.169 1.594-1.2-1.275-2.906-2.069-4.794-2.069-3.625 0-6.563 2.938-6.563 6.563 0 0.512 0.056 1.012 0.169 1.494-5.456-0.275-10.294-2.888-13.531-6.862-0.563 0.969-0.887 2.1-0.887 3.3 0 2.275 1.156 4.287 2.919 5.463-1.075-0.031-2.087-0.331-2.975-0.819 0 0.025 0 0.056 0 0.081 0 3.181 2.263 5.838 5.269 6.437-0.55 0.15-1.131 0.231-1.731 0.231-0.425 0-0.831-0.044-1.237-0.119 0.838 2.606 3.263 4.506 6.131 4.563-2.25 1.762-5.075 2.813-8.156 2.813-0.531 0-1.050-0.031-1.569-0.094 2.913 1.869 6.362 2.95 10.069 2.95 12.075 0 18.681-10.006 18.681-18.681 0-0.287-0.006-0.569-0.019-0.85 1.281-0.919 2.394-2.075 3.275-3.394z"></path>
    </symbol>

    <symbol id="icon-linkedin2" viewBox="0 0 32 32">
        <path d="M12 12h5.535v2.837h0.079c0.77-1.381 2.655-2.837 5.464-2.837 5.842 0 6.922 3.637 6.922 8.367v9.633h-5.769v-8.54c0-2.037-0.042-4.657-3.001-4.657-3.005 0-3.463 2.218-3.463 4.509v8.688h-5.767v-18z"></path>
        <path d="M2 12h6v18h-6v-18z"></path>
        <path d="M8 7c0 1.657-1.343 3-3 3s-3-1.343-3-3c0-1.657 1.343-3 3-3s3 1.343 3 3z"></path>
    </symbol>

    <symbol id="icon-stopwatch" viewBox="0 0 32 32">
        <path d="M16 6.038v-2.038h4v-2c0-1.105-0.895-2-2-2h-6c-1.105 0-2 0.895-2 2v2h4v2.038c-6.712 0.511-12 6.119-12 12.962 0 7.18 5.82 13 13 13s13-5.82 13-13c0-6.843-5.288-12.451-12-12.962zM22.071 26.071c-1.889 1.889-4.4 2.929-7.071 2.929s-5.182-1.040-7.071-2.929c-1.889-1.889-2.929-4.4-2.929-7.071s1.040-5.182 2.929-7.071c1.814-1.814 4.201-2.844 6.754-2.923l-0.677 9.813c-0.058 0.822 0.389 1.181 0.995 1.181s1.053-0.36 0.995-1.181l-0.677-9.813c2.552 0.079 4.94 1.11 6.754 2.923 1.889 1.889 2.929 4.4 2.929 7.071s-1.040 5.182-2.929 7.071z"></path>
    </symbol>

    <!-- FLAGS -->
     <symbol id="icon-uk" viewBox="0 0 512 512">
        <circle cx="256" cy="256" r="256" fill="#f0f0f0"/>
        <g fill="#0052b4">
            <path d="M52.92 100.142c-20.109 26.163-35.272 56.318-44.101 89.077h133.178L52.92 100.142zM503.181 189.219c-8.829-32.758-23.993-62.913-44.101-89.076l-89.075 89.076h133.176zM8.819 322.784c8.83 32.758 23.993 62.913 44.101 89.075l89.074-89.075H8.819zM411.858 52.921c-26.163-20.109-56.317-35.272-89.076-44.102v133.177l89.076-89.075zM100.142 459.079c26.163 20.109 56.318 35.272 89.076 44.102V370.005l-89.076 89.074zM189.217 8.819c-32.758 8.83-62.913 23.993-89.075 44.101l89.075 89.075V8.819zM322.783 503.181c32.758-8.83 62.913-23.993 89.075-44.101l-89.075-89.075v133.176zM370.005 322.784l89.075 89.076c20.108-26.162 35.272-56.318 44.101-89.076H370.005z"/>
        </g>
        <g fill="#d80027">
            <path d="M509.833 222.609H289.392V2.167A258.556 258.556 0 0 0 256 0c-11.319 0-22.461.744-33.391 2.167v220.441H2.167A258.556 258.556 0 0 0 0 256c0 11.319.744 22.461 2.167 33.391h220.441v220.442a258.35 258.35 0 0 0 66.783 0V289.392h220.442A258.533 258.533 0 0 0 512 256c0-11.317-.744-22.461-2.167-33.391z"/>
            <path d="M322.783 322.784L437.019 437.02a256.636 256.636 0 0 0 15.048-16.435l-97.802-97.802h-31.482v.001zM189.217 322.784h-.002L74.98 437.019a256.636 256.636 0 0 0 16.435 15.048l97.802-97.804v-31.479zM189.217 189.219v-.002L74.981 74.98a256.636 256.636 0 0 0-15.048 16.435l97.803 97.803h31.481zM322.783 189.219L437.02 74.981a256.328 256.328 0 0 0-16.435-15.047l-97.802 97.803v31.482z"/>
        </g>
    </symbol>

    <symbol id="icon-srb" viewBox="0 0 512 512">
        <circle cx="256" cy="256" r="256" fill="#f0f0f0"/>
        <path d="M256 0C114.616 0 0 114.616 0 256c0 31.314 5.633 61.311 15.923 89.043h480.155C506.368 317.311 512 287.314 512 256 512 114.616 397.384 0 256 0z" fill="#0052b4"/>
        <g fill="#d80027">
            <path d="M256 0C145.929 0 52.094 69.472 15.923 166.957h480.155C459.906 69.472 366.071 0 256 0z"/>
            <path d="M66.198 144.696v127.706c0 72.644 94.901 94.903 94.901 94.903s94.9-22.259 94.9-94.903V144.696H66.198z"/>
        </g>
        <g fill="#ffda44">
            <path d="M105.446 166.957h111.305v-44.522l-22.261 11.13-33.391-33.391-33.392 33.391-22.261-11.13zM233.739 290.183l-72.348-72.348-72.348 72.348 23.611 23.611 48.737-48.737 48.737 48.737z"/>
        </g>
        <path d="M233.739 222.609h-33.756a22.123 22.123 0 0 0 3.002-11.128c0-12.296-9.967-22.261-22.261-22.261-8.495 0-15.872 4.758-19.625 11.753-3.753-6.994-11.13-11.753-19.625-11.753-12.294 0-22.261 9.965-22.261 22.261a22.12 22.12 0 0 0 3.002 11.128H89.043c0 12.295 10.709 22.261 23.002 22.261h-.741c0 12.295 9.966 22.261 22.261 22.261 0 10.886 7.818 19.93 18.143 21.866l-17.54 39.602a72.124 72.124 0 0 0 27.224 5.315 72.124 72.124 0 0 0 27.224-5.315l-17.54-39.602c10.325-1.934 18.143-10.979 18.143-21.866 12.295 0 22.261-9.966 22.261-22.261h-.741c12.292 0 23-9.967 23-22.261z" fill="#f0f0f0"/>
    </symbol>

    <symbol id="icon-ro" viewBox="0 0 512 512">
        <path d="M345.043 15.922C317.309 5.633 287.314 0 256 0c-31.314-.001-61.31 5.633-89.043 15.922l-22.261 240.077 22.261 240.077C194.689 506.368 224.685 512 256 512c31.313 0 61.31-5.632 89.043-15.924L367.303 256l-22.26-240.078z" fill="#ffda44"/>
        <path d="M512 256c0-110.07-69.472-203.907-166.957-240.077v480.156C442.528 459.905 511.999 366.072 512 256z" fill="#d80027"/>
        <path d="M0 255.999c0 110.073 69.472 203.906 166.955 240.079l.001-480.154C69.472 52.094 0 145.928 0 255.999z" fill="#0052b4"/>
    </symbol>

    <symbol id="icon-hu" viewBox="0 0 512 512">
        <path d="M15.923 166.957C5.633 194.691 0 224.686 0 256s5.633 61.311 15.923 89.043L256 367.304l240.077-22.261C506.367 317.311 512 287.314 512 256s-5.633-61.309-15.923-89.043L256 144.696 15.923 166.957z" fill="#f0f0f0"/>
        <path d="M256 0C145.93 0 52.094 69.472 15.924 166.957h480.155C459.906 69.472 366.072 0 256 0z" fill="#d80027"/>
        <path d="M256 512c110.072 0 203.906-69.472 240.078-166.957H15.924C52.094 442.528 145.93 512 256 512z" fill="#6da544"/>
    </symbol>

    <symbol id="icon-ger" viewBox="0 0 512 512">
        <path d="M15.923 345.043C52.094 442.527 145.929 512 256 512s203.906-69.473 240.077-166.957L256 322.783l-240.077 22.26z" fill="#ffda44"/>
        <path d="M256 0C145.929 0 52.094 69.472 15.923 166.957L256 189.217l240.077-22.261C459.906 69.472 366.071 0 256 0z"/>
        <path d="M15.923 166.957C5.633 194.69 0 224.686 0 256s5.633 61.31 15.923 89.043h480.155C506.368 317.31 512 287.314 512 256s-5.632-61.31-15.923-89.043H15.923z" fill="#d80027"/>
    </symbol>

    <symbol id="icon-chevron-down" viewBox="0 0 24 24">
        <path d="M5.293 9.707l6 6c0.391 0.391 1.024 0.391 1.414 0l6-6c0.391-0.391 0.391-1.024 0-1.414s-1.024-0.391-1.414 0l-5.293 5.293-5.293-5.293c-0.391-0.391-1.024-0.391-1.414 0s-0.391 1.024 0 1.414z"></path>
    </symbol>

    </defs>
</svg>
